<?xml version="1.0" encoding="UTF-8" standalone="no"?>
<svg xmlns="http://www.w3.org/2000/svg" version="1.1" width="100" height="26">
  <!--1.1-->  <path  style="fill:#001819;fill-opacity:0.4;stroke-opacity:0.25;stroke:#007671"  d="M  27.499999,13         35.000001,-4e-6      19.999998,-1e-6  z"                />
  <!--1.2-->  <path  style="fill:#001819;fill-opacity:0.7;stroke-opacity:0.25;stroke:#007671"  d="M  42.499999,13         50.000001,-4e-6      34.999998,-1e-6  z"                />
  <!--1.3-->  <path  style="fill:#011519;fill-opacity:0.7;stroke-opacity:0.25;stroke:#007671"  d="M  57.499999,13         65.000001,-4e-6      49.999998,-1e-6  z"                />
  <!--1.4-->  <path  style="fill:#001819;fill-opacity:0.4;stroke-opacity:0.25;stroke:#007671"  d="M  72.499999,13         80.000001,-4e-6      64.999998,-1e-6  z"                />
  <!--2.1-->  <path  style="fill:#00272A;fill-opacity:0.2;stroke-opacity:0.25;stroke:#007671"  d="M  19.999999,-4e-6      27.500001,13         l                -15.000003,-3e-6  z"  />
  <!--2.2-->  <path  style="fill:#00272A;fill-opacity:0.7;stroke-opacity:0.25;stroke:#007671"  d="M  34.999999,-4e-6      42.500001,13         l                -15.000003,-3e-6  z"  />
  <!--2.3-->  <path  style="fill:#00272A;fill-opacity:1.0;stroke-opacity:0.25;stroke:#007671"  d="M  49.999999,-4e-6      57.500001,13         l                -15.000003,-3e-6  z"  />
  <!--2.4-->  <path  style="fill:#00272A;fill-opacity:0.7;stroke-opacity:0.25;stroke:#007671"  d="M  64.999999,-4e-6      72.500001,13         l                -15.000003,-3e-6  z"  />
  <!--2.5-->  <path  style="fill:#00272A;fill-opacity:0.2;stroke-opacity:0.25;stroke:#007671"  d="M  79.999999,-4e-6      87.500001,13         l                -15.000003,-3e-6  z"  />
  <!--3.1-->  <path  style="fill:#001819;fill-opacity:0.2;stroke-opacity:0.25;stroke:#007671"  d="m  19.999999,26         7.500002,-13.000004  -15.000003,3e-6  z"                />
  <!--3.2-->  <path  style="fill:#001819;fill-opacity:0.7;stroke-opacity:0.25;stroke:#007671"  d="m  34.999999,26         7.500002,-13.000004  -15.000003,3e-6  z"                />
  <!--3.3-->  <path  style="fill:#001819;fill-opacity:1.0;stroke-opacity:0.25;stroke:#007671"  d="m  49.999999,26         7.500002,-13.000004  -15.000003,3e-6  z"                />
  <!--3.4-->  <path  style="fill:#001819;fill-opacity:0.7;stroke-opacity:0.25;stroke:#007671"  d="m  64.999999,26         7.500002,-13.000004  -15.000003,3e-6  z"                />
  <!--3.5-->  <path  style="fill:#001819;fill-opacity:0.2;stroke-opacity:0.25;stroke:#007671"  d="m  79.999999,26         7.500002,-13.000004  -15.000003,3e-6  z"                />
  <!--4.1-->  <path  style="fill:#00272A;fill-opacity:0.4;stroke-opacity:0.25;stroke:#007671"  d="M  27.499999,12.999996  35.000001,26         l                -15.000003,-3e-6  z"  />
  <!--4.2-->  <path  style="fill:#00272A;fill-opacity:0.7;stroke-opacity:0.25;stroke:#007671"  d="M  42.499999,12.999996  50.000001,26         l                -15.000003,-3e-6  z"  />
  <!--4.3-->  <path  style="fill:#00272A;fill-opacity:0.7;stroke-opacity:0.25;stroke:#007671"  d="M  57.499999,12.999996  65.000001,26         l                -15.000003,-3e-6  z"  />
  <!--4.4-->  <path  style="fill:#00272A;fill-opacity:0.4;stroke-opacity:0.25;stroke:#007671"  d="M  72.499999,12.999996  80.000001,26         l                -15.000003,-3e-6  z"  />
</svg>
